HIERARCHY
ROOT simHips
{
  OFFSET 89.5287 99.8043 54.2547
  CHANNELS 6 Xposition Yposition Zposition Zrotation Xrotation Yrotation
  JOINT simSpine
  {
    OFFSET -0.000355721 21.3001 -0.016921
    CHANNELS 3 Zrotation Xrotation Yrotation
    JOINT simLeftArm
    {
      OFFSET 13.5181 21.3012 0
      CHANNELS 3 Zrotation Xrotation Yrotation
      JOINT simLeftForeArm
      {
        OFFSET 24.5783 0 0
        CHANNELS 3 Zrotation Xrotation Yrotation
        JOINT simLeftHand
        {
          OFFSET 24.5783 0 0
          CHANNELS 3 Zrotation Xrotation Yrotation
          End Site
          {
            OFFSET 7.32568 1.52588e-05 0.0169305
          }
        }
      }
    }
    JOINT simHead
    {
      OFFSET 0 27.4458 -0.00489235
      CHANNELS 3 Zrotation Xrotation Yrotation
      End Site
      {
        OFFSET 0 0 0
      }
    }
    JOINT simRightArm
    {
      OFFSET -13.5174 21.3012 0
      CHANNELS 3 Zrotation Xrotation Yrotation
      JOINT simRightForeArm
      {
        OFFSET -24.5783 0 0
        CHANNELS 3 Zrotation Xrotation Yrotation
        JOINT simRightHand
        {
          OFFSET -24.5783 0 0
          CHANNELS 3 Zrotation Xrotation Yrotation
          End Site
          {
            OFFSET -7.32568 1.52588e-05 0.0169305
          }
        }
      }
    }
  }
  JOINT simRightUpLeg
  {
    OFFSET -8.44614 -9.41038 0.835684
    CHANNELS 3 Zrotation Xrotation Yrotation
    JOINT simRightLeg
    {
      OFFSET 0 -40.9639 0
      CHANNELS 3 Zrotation Xrotation Yrotation
      JOINT simRightFoot
      {
        OFFSET 0 -40.9639 0
        CHANNELS 3 Zrotation Xrotation Yrotation
        End Site
        {
          OFFSET 0.50614 -9.67405 14.6709
        }
      }
    }
  }
  JOINT simLeftUpLeg
  {
    OFFSET 8.44614 -9.41038 0.835684
    CHANNELS 3 Zrotation Xrotation Yrotation
    JOINT simLeftLeg
    {
      OFFSET 0 -40.9639 0
      CHANNELS 3 Zrotation Xrotation Yrotation
      JOINT simLeftFoot
      {
        OFFSET 0 -40.9639 0
        CHANNELS 3 Zrotation Xrotation Yrotation
        End Site
        {
          OFFSET -0.50614 -9.67405 14.6709
        }
      }
    }
  }
}
MOTION
Frames:	18
Frame Time:	0.0333333
89.5287 99.8043 54.2547 0.00144971 0 -0 1.70755e-06 0 -0 -6.83019e-06 -1.70755e-06 -1.53679e-05 -0.00485707 1.70755e-06 -3.97239e-05 -1.06722e-07 1.81907e-14 -9.76607e-06 -2.03555e-13 0 -0 6.83019e-06 -8.53773e-07 5.12264e-06 -8.53785e-06 -0.000460972 -1.4782e-05 -5.75742e-13 6.83019e-06 1.0193e-05 -1.05019 -0.832439 -0.00709828 -6.18083e-05 0.109937 -0.00189549 1.05024 0.722506 -0.00643354 -0.215188 -1.16733 -0.00116311 0.000937064 1.63692 0.00145079 0.214 -0.469588 0.00168828 
89.53 99.8042 54.278 0.0014471 -0.00295183 -0.0506665 0.024437 -0.0600652 0.0112281 -0.0873363 -0.00971268 0.0562051 -0.00485709 -0.021732 -3.97239e-05 0.081992 0.246127 0.0315223 -0.0898652 0.327245 0.239118 -0.0305093 0.0526269 -0.024935 0.00504708 -0.000460972 1.46562e-05 -0.0641089 -0.0200073 -0.0209601 -1.04656 -0.787232 -0.0375169 -0.00184014 0.0604014 -0.00189549 1.05508 0.718997 0.0722781 -0.204161 -1.69937 -0.114562 0.000923102 2.18794 0.00145126 0.192242 -0.508756 0.154621 
89.5436 99.8045 54.2857 0.00148727 0.0187679 -0.114672 0.0548357 -0.13211 0.0747451 -0.209276 -0.0312312 0.054296 -0.00485702 0.0687335 -3.97239e-05 -0.106542 0.0217177 0.056812 -0.201069 0.677103 0.412643 -0.0646267 0.0585638 -0.101447 -0.0282289 -0.000460972 0.0643016 0.00462659 -0.105699 -0.102174 -1.07168 -0.806471 -0.000489887 0.0172341 0.0426405 -0.00189549 0.993014 0.737629 0.0874759 -0.218792 -1.79183 0.0141411 -0.00235798 2.3033 0.00145137 0.243226 -0.541213 0.0893878 
89.5518 99.8021 54.3051 -0.0108043 -0.00622672 -0.0437326 0.0877707 -0.143913 -0.00702511 -0.305196 0.130161 0.128374 0.00867313 -0.122078 -3.9724e-05 -0.0428498 0.134058 0.0513641 -0.204376 1.0313 0.622395 -0.113775 0.0379653 -0.1622 -0.00715398 -0.000460972 0.0164966 0.0130508 -0.0584367 0.0142712 -1.05408 -0.78104 -0.071935 0.00974183 0.0958801 -0.00189549 0.951394 0.696678 0.100864 -0.198903 -1.72872 -0.128718 -0.0337896 2.327 0.00145139 0.253302 -0.609179 0.175234 
89.574 99.8005 54.3076 0.0136938 0.0642999 -0.053471 0.0687807 -0.230224 -0.000822031 -0.393982 0.0988952 0.172278 0.0108941 -0.153916 -3.9724e-05 -0.092082 0.207275 0.0546248 -0.16067 1.3288 0.768608 -0.133806 -0.0224399 -0.236047 -0.0208055 -0.000460972 0.0500016 -0.0308377 -0.0863587 -0.175739 -1.10518 -0.892212 0.00853684 0.0289009 0.145769 -0.00189549 1.01122 0.686178 0.0149639 -0.233555 -1.96868 0.016922 -0.0444677 2.50319 -0.00531857 0.275018 -0.617778 0.0433692 
89.6032 99.7989 54.3114 0.00512267 0.083023 -0.0306747 0.0862872 -0.274112 -0.0239867 -0.490669 -0.0305465 0.179429 -0.00627143 0.0878165 -3.97239e-05 -0.0500056 0.0821947 0.0893219 -0.0768314 1.56528 0.843612 -0.170714 -0.0259389 -0.33138 -0.00232749 -0.000460972 0.00998368 -0.0762848 0.00642648 0.0201941 -1.11418 -0.889719 -0.0829896 0.0276234 0.123386 -0.00181572 1.0143 0.684793 0.0822445 -0.275488 -1.82443 -0.130495 -0.00651581 2.29432 -0.0130857 0.286468 -0.580707 0.178933 
89.6343 99.7994 54.3047 0.0217786 0.151799 -0.0442475 0.0664467 -0.32177 -0.00412813 -0.560046 0.0796017 0.286543 0.016148 -0.22738 -3.97242e-05 -0.153498 0.257803 0.117851 0.0582889 1.74908 0.882459 -0.157186 -0.133258 -0.403469 -0.029341 -0.000460972 0.0751691 -0.020513 -0.0972781 -0.199904 -1.15436 -1.00498 -0.067598 0.0367483 0.174204 -0.00189341 1.01957 0.691787 0.0622032 -0.3119 -1.5731 -0.0231444 0.00899031 1.92622 -0.0183106 0.277523 -0.536046 0.0694453 
89.6631 99.7984 54.2926 0.0164663 0.195791 -0.0222314 0.042586 -0.338536 -0.06832 -0.637311 0.0715216 0.418905 0.0226699 -0.31733 -3.97245e-05 -0.0725117 0.317098 0.0427887 0.213386 1.79059 0.851342 -0.14718 -0.169744 -0.451067 -0.0270961 -0.000460972 0.073248 0.0619458 -0.114225 -0.0540675 -1.17633 -1.08742 0.0329542 0.048429 0.221891 -0.00183755 1.06202 0.704408 -0.0563526 -0.318117 -1.59845 0.0301029 0.00647083 1.86559 -0.022614 0.266489 -0.503944 0.00108921 
89.6915 99.7971 54.2979 0.0181463 0.201918 -0.0175497 -0.00221217 -0.351435 -0.0903189 -0.673581 0.138058 0.518702 0.0110276 -0.155522 -3.9724e-05 -0.0810017 0.254343 -0.0473079 0.427121 1.87089 0.753294 -0.0884315 -0.120533 -0.506648 -0.0135613 -0.000460972 0.0449658 -0.0711563 -0.0644045 -0.0450873 -1.19051 -1.09491 -0.151823 0.0468896 0.231226 -0.00166698 1.03695 0.703436 0.105939 -0.330685 -1.95648 0.0854013 -0.0183055 2.27991 -0.0249077 0.335392 -0.564459 -0.0655893 
89.7278 99.7957 54.2993 0.00286421 0.174685 -0.0295501 -0.0153452 -0.324292 -0.0897155 -0.736546 0.0230775 0.596271 0.0166737 -0.234871 -3.97242e-05 -0.105385 0.310838 0.0413123 0.608587 1.95294 0.644299 0.0284691 -0.250227 -0.550287 -0.0409061 -0.000460971 0.111628 -0.0318214 -0.0574156 -0.226365 -1.20037 -1.05152 -0.125803 0.0445222 0.207367 -0.00140052 1.02832 0.700449 0.0813755 -0.337181 -1.61991 -0.0702104 -0.00496898 1.94362 -0.0269166 0.311456 -0.539126 0.0840462 
89.763 99.7943 54.3008 -4.94685e-05 0.184367 -0.0997943 -0.0516118 -0.344817 -0.0479911 -0.777895 -0.139245 0.664665 0.0123079 -0.162815 -3.9724e-05 -0.0974225 0.29795 0.0397854 0.783325 2.02709 0.525323 0.0959831 -0.220338 -0.537824 -0.0392152 -0.000460971 0.110495 0.0477031 -0.115434 -0.0965931 -1.22711 -1.0948 -0.0466074 0.0594262 0.252522 -0.001057 1.04219 0.705002 0.0726462 -0.359624 -1.89841 0.0346999 0.0059945 2.20216 -0.028538 0.317772 -0.54217 0.0325994 
89.791 99.7923 54.3065 -0.0153156 0.121063 -0.109335 -0.0681008 -0.321915 -0.0651857 -0.828602 -0.171585 0.750991 0.00889594 -0.125516 -3.9724e-05 -0.0567134 0.244811 0.00504075 0.8609 2.0922 0.429427 0.176426 -0.225491 -0.497783 -0.0338395 -0.000460971 0.10011 0.0758553 -0.129926 -0.168056 -1.2345 -1.0634 0.0178102 0.0776336 0.349567 -0.000655256 1.01055 0.638336 0.0355395 -0.357255 -1.65046 -0.0525492 -0.0267334 2.10262 -0.0296311 0.390515 -0.642749 0.138202 
89.8304 99.7907 54.3045 -0.00417967 0.123583 -0.153965 -0.090312 -0.377316 -0.0357273 -0.884713 0.0517768 0.852271 0.0183573 -0.256394 -3.97243e-05 -0.128346 0.269986 0.0203741 0.897942 2.142 0.395044 0.206593 -0.130034 -0.492037 -0.024986 -0.000460972 0.0816995 0.0608856 -0.056526 -0.068274 -1.26974 -1.08171 -0.00886658 0.0830638 0.362307 -0.000214092 1.01936 0.638281 0.0848904 -0.410011 -1.7494 -0.00831669 -0.00231912 2.1465 -0.0300802 0.437097 -0.588468 0.133243 
89.8584 99.7881 54.3106 -0.041629 -0.00793199 -0.0834251 -0.0643455 -0.271373 -0.0743016 -0.968965 -0.0604432 0.828059 -0.000653131 0.00991627 -3.97239e-05 -0.0904335 0.22051 0.0732979 0.905503 2.14373 0.382996 0.244292 -0.108367 -0.537435 -0.0208416 -0.000460972 0.0730038 0.0691871 -0.0386128 -0.0896085 -1.24727 -0.911627 -0.0425707 0.0780515 0.331263 0.000247651 1.03068 0.654614 0.0579553 -0.389695 -1.47384 -0.08281 -0.0103961 2.04854 -0.0297554 0.482337 -0.644938 0.149794 
89.9244 99.7852 54.2843 -0.0103939 0.0833153 -0.157292 -0.0642173 -0.385663 0.00673366 -1.09357 0.0930494 0.895946 0.013466 -0.188286 -3.97241e-05 -0.136099 0.205437 0.0574716 0.871336 2.13068 0.437516 0.270928 -0.139664 -0.542003 -0.0188207 -0.000460972 0.0611 0.0460316 -0.0730182 -0.140175 -1.339 -1.09832 0.0702254 0.104858 0.451071 0.000711157 1.0494 0.639099 0.0236494 -0.458517 -1.85836 0.0305885 -0.0298158 2.35556 -0.0285427 0.560927 -0.653228 0.111721 
89.9443 99.7819 54.2902 -0.00576036 0.0896024 -0.0775882 -0.0998754 -0.470742 -0.0718022 -1.14929 0.0882891 0.915824 0.0155622 -0.217997 -3.97242e-05 -0.209098 0.272236 0.0700147 0.906071 2.23051 0.47668 0.353774 -0.069296 -0.577417 -0.0177146 -0.000460972 0.0772961 0.093709 -0.15719 -0.0946534 -1.34898 -1.0602 -0.0526248 0.0919372 0.389502 0.00115758 1.03444 0.637309 0.0547674 -0.502569 -1.75672 -0.0196403 0.0173728 2.16799 -0.0263 0.535432 -0.585393 0.0751255 
89.9885 99.7796 54.2842 -0.00767263 0.0722557 -0.0756745 -0.06605 -0.519542 -0.0326458 -1.2577 0.0994216 0.907443 0.0134672 -0.188998 -3.97241e-05 -0.189525 0.183211 0.0581459 0.828102 2.32173 0.476153 0.373387 -0.0871314 -0.631314 -0.0170575 -0.000460972 0.0614446 0.179226 -0.078164 0.00195942 -1.36759 -1.05133 -0.0593775 0.0923978 0.400954 0.0015681 1.05651 0.642921 0.0727012 -0.510095 -1.7318 -0.0301024 -0.00292704 2.1901 -0.0202587 0.555317 -0.629916 0.0941577 
90.0327 99.7788 54.2731 -0.0123807 0.0408671 -0.0784401 -0.068227 -0.510654 -0.0672095 -1.34247 0.188729 1.01192 0.0135604 -0.190206 -3.97241e-05 -0.105235 0.225346 0.0127768 0.796474 2.33238 0.536349 0.410181 -0.0987615 -0.625736 -0.0163828 -0.000460972 0.0807373 0.0941859 0.0522662 0.0108062 -1.40594 -1.04349 -0.0386783 0.10767 0.440881 0.00192391 1.07634 0.605904 0.0520503 -0.55133 -1.68361 -0.0369771 -0.011517 2.1927 -0.0139451 0.644172 -0.64324 0.126086 
